<svg xmlns="http://www.w3.org/2000/svg" viewBox="0 0 128 128" width="512" height="512">
  <defs>
    <linearGradient id="mezzo-bg" x1="0%" y1="0%" x2="100%" y2="100%">
      <stop offset="0%" stop-color="#1c202a" />
      <stop offset="50%" stop-color="#0e1117" />
      <stop offset="100%" stop-color="#080a0e" />
    </linearGradient>
    <filter id="mezzo-glow" x="-20%" y="-20%" width="140%" height="140%">
      <feDropShadow dx="0" dy="2" stdDeviation="3" flood-color="#000000" flood-opacity="0.6"/>
    </filter>
  </defs>

  <!-- Sleek rounded squircle container -->
  <rect width="128" height="128" rx="28" fill="url(#mezzo-bg)" />
  <rect width="126" height="126" x="1" y="1" rx="27" fill="none" stroke="#2a303d" stroke-width="1.2" stroke-opacity="0.6" />

  <!-- Left AirPod -->
  <g filter="url(#mezzo-glow)">
    <path d="M 47.908 93.368 C 53.622 93.368 60.088 90.393 64 85.908 L 64 68.644 C 60.088 64.159 53.622 61.184 47.908 61.184 C 47.293 61.184 46.721 61.295 46.12 61.363 L 46.12 29 L 31.816 29 L 31.816 77.276 C 31.816 86.159 39.025 93.368 47.908 93.368 Z" fill="#FFFFFF"/>
    <circle cx="53.272" cy="75.488" r="3.5" fill="#121212"/>
  </g>

  <!-- Right AirPod -->
  <g filter="url(#mezzo-glow)">
    <path d="M 80.092 99 C 85.806 99 92.272 96.025 96.184 91.54 L 96.184 74.276 C 92.272 69.791 85.806 66.816 80.092 66.816 C 79.477 66.816 78.905 66.927 78.304 66.995 L 78.304 34.632 L 64 34.632 L 64 82.908 C 64 91.791 71.209 99 80.092 99 Z" fill="#FFFFFF"/>
    <circle cx="85.456" cy="81.12" r="3.5" fill="#121212"/>
  </g>
</svg>